<svg xmlns="http://www.w3.org/2000/svg" viewBox="0 0 24 24" role="img" aria-label="Waze">
  <path d="M12 3c-4.97 0-9 3.36-9 7.5 0 2.4 1.36 4.54 3.47 5.9-.2 1.1-.77 2.1-1.68 2.6 1.8.5 3.72-.28 4.83-1.92.78.26 1.6.42 2.38.42 4.97 0 9-3.36 9-7.5C21 6.36 16.97 3 12 3z" fill="#33CCFF"/>
  <circle cx="9.3" cy="10.2" r="1.25" fill="#FFFFFF"/>
  <circle cx="14.7" cy="10.2" r="1.25" fill="#FFFFFF"/>
  <path d="M9.6 13.2 C10.3 13.9 11.1 14.2 12 14.2 C12.9 14.2 13.7 13.9 14.4 13.2" stroke="#FFFFFF" stroke-width="1.3" stroke-linecap="round" fill="none"/>
</svg>
